<svg width="22" height="18" viewBox="0 0 22 18" fill="none" xmlns="http://www.w3.org/2000/svg">
<path d="M10.7091 4.88584L3.66724 10.6857V16.9454C3.66724 17.1074 3.73162 17.2629 3.84623 17.3775C3.96083 17.4921 4.11627 17.5565 4.27835 17.5565L8.55842 17.5454C8.71997 17.5446 8.87462 17.4798 8.98857 17.3653C9.10251 17.2508 9.16648 17.0958 9.16648 16.9343V13.2787C9.16648 13.1166 9.23086 12.9612 9.34547 12.8466C9.46007 12.732 9.61551 12.6676 9.77759 12.6676H12.222C12.3841 12.6676 12.5395 12.732 12.6542 12.8466C12.7688 12.9612 12.8331 13.1166 12.8331 13.2787V16.9316C12.8329 17.012 12.8485 17.0917 12.8791 17.1661C12.9097 17.2404 12.9547 17.308 13.0115 17.365C13.0682 17.4219 13.1357 17.4671 13.2099 17.4979C13.2842 17.5288 13.3638 17.5446 13.4443 17.5446L17.7228 17.5565C17.8849 17.5565 18.0403 17.4921 18.1549 17.3775C18.2695 17.2629 18.3339 17.1074 18.3339 16.9454V10.6815L11.2935 4.88584C11.2108 4.81913 11.1076 4.78274 11.0013 4.78274C10.895 4.78274 10.7919 4.81913 10.7091 4.88584ZM21.8325 8.82789L18.6395 6.19591V0.905599C18.6395 0.784041 18.5912 0.667463 18.5052 0.581508C18.4193 0.495554 18.3027 0.447266 18.1811 0.447266H16.0422C15.9207 0.447266 15.8041 0.495554 15.7181 0.581508C15.6322 0.667463 15.5839 0.784041 15.5839 0.905599V3.6789L12.1644 0.865495C11.8362 0.595452 11.4244 0.447805 10.9994 0.447805C10.5744 0.447805 10.1627 0.595452 9.8345 0.865495L0.166336 8.82789C0.119925 8.86625 0.0815275 8.91338 0.053337 8.96658C0.0251464 9.01979 0.00771557 9.07803 0.00204041 9.13797C-0.00363476 9.19792 0.00255699 9.25839 0.0202619 9.31594C0.0379667 9.37349 0.0668377 9.42699 0.105225 9.47338L1.07918 10.6574C1.11747 10.704 1.16455 10.7425 1.21775 10.7708C1.27095 10.7992 1.32921 10.8167 1.3892 10.8225C1.4492 10.8283 1.50974 10.8222 1.56737 10.8045C1.625 10.7869 1.67858 10.758 1.72505 10.7197L10.7091 3.31987C10.7919 3.25315 10.895 3.21677 11.0013 3.21677C11.1076 3.21677 11.2108 3.25315 11.2935 3.31987L20.278 10.7197C20.3244 10.758 20.3779 10.7869 20.4354 10.8046C20.493 10.8223 20.5535 10.8285 20.6134 10.8228C20.6734 10.8172 20.7316 10.7997 20.7848 10.7716C20.838 10.7434 20.8851 10.705 20.9235 10.6586L21.8974 9.47452C21.9358 9.42787 21.9645 9.37409 21.982 9.31629C21.9995 9.25849 22.0054 9.1978 21.9994 9.13771C21.9934 9.07762 21.9755 9.01931 21.9469 8.96614C21.9182 8.91298 21.8794 8.86599 21.8325 8.82789Z" fill="#F2FF00"/>
</svg>
