<svg width="22" height="22" viewBox="0 0 22 22" fill="none" xmlns="http://www.w3.org/2000/svg">
<g clip-path="url(#clip0_7050_6849)">
<path d="M10.7091 6.88584L3.66724 12.6857V18.9454C3.66724 19.1074 3.73162 19.2629 3.84623 19.3775C3.96083 19.4921 4.11627 19.5565 4.27835 19.5565L8.55842 19.5454C8.71997 19.5446 8.87462 19.4798 8.98857 19.3653C9.10251 19.2508 9.16648 19.0958 9.16648 18.9343V15.2787C9.16648 15.1166 9.23086 14.9612 9.34547 14.8466C9.46007 14.732 9.61551 14.6676 9.77759 14.6676H12.222C12.3841 14.6676 12.5395 14.732 12.6542 14.8466C12.7688 14.9612 12.8331 15.1166 12.8331 15.2787V18.9316C12.8329 19.012 12.8485 19.0917 12.8791 19.1661C12.9097 19.2404 12.9547 19.308 13.0115 19.365C13.0682 19.4219 13.1357 19.4671 13.2099 19.4979C13.2842 19.5288 13.3638 19.5446 13.4443 19.5446L17.7228 19.5565C17.8849 19.5565 18.0403 19.4921 18.1549 19.3775C18.2695 19.2629 18.3339 19.1074 18.3339 18.9454V12.6815L11.2935 6.88584C11.2108 6.81913 11.1076 6.78274 11.0013 6.78274C10.895 6.78274 10.7919 6.81913 10.7091 6.88584ZM21.8325 10.8279L18.6395 8.19591V2.9056C18.6395 2.78404 18.5912 2.66746 18.5052 2.58151C18.4193 2.49555 18.3027 2.44727 18.1811 2.44727H16.0422C15.9207 2.44727 15.8041 2.49555 15.7181 2.58151C15.6322 2.66746 15.5839 2.78404 15.5839 2.9056V5.6789L12.1644 2.86549C11.8362 2.59545 11.4244 2.44781 10.9994 2.44781C10.5744 2.44781 10.1627 2.59545 9.8345 2.86549L0.166336 10.8279C0.119925 10.8663 0.0815275 10.9134 0.053337 10.9666C0.0251464 11.0198 0.00771557 11.078 0.00204041 11.138C-0.00363476 11.1979 0.00255699 11.2584 0.0202619 11.3159C0.0379667 11.3735 0.0668377 11.427 0.105225 11.4734L1.07918 12.6574C1.11747 12.704 1.16455 12.7425 1.21775 12.7708C1.27095 12.7992 1.32921 12.8167 1.3892 12.8225C1.4492 12.8283 1.50974 12.8222 1.56737 12.8045C1.625 12.7869 1.67858 12.758 1.72505 12.7197L10.7091 5.31987C10.7919 5.25315 10.895 5.21677 11.0013 5.21677C11.1076 5.21677 11.2108 5.25315 11.2935 5.31987L20.278 12.7197C20.3244 12.758 20.3779 12.7869 20.4354 12.8046C20.493 12.8223 20.5535 12.8285 20.6134 12.8228C20.6734 12.8172 20.7316 12.7997 20.7848 12.7716C20.838 12.7434 20.8851 12.705 20.9235 12.6586L21.8974 11.4745C21.9358 11.4279 21.9645 11.3741 21.982 11.3163C21.9995 11.2585 22.0054 11.1978 21.9994 11.1377C21.9934 11.0776 21.9755 11.0193 21.9469 10.9661C21.9182 10.913 21.8794 10.866 21.8325 10.8279Z" fill="#808285"/>
</g>
<defs>
<clipPath id="clip0_7050_6849">
<rect width="22" height="22" fill="white"/>
</clipPath>
</defs>
</svg>
